<svg width="300" height="291" viewBox="0 0 300 291" fill="none" xmlns="http://www.w3.org/2000/svg">
<path d="M104.281 259.26C105.953 260.333 106.969 261.229 106.969 261.229C106.969 261.229 99.3802 266.786 90.3594 266.37C81.3333 266.01 74.2812 259.797 74.2812 259.797C74.2812 259.797 81.8698 254.24 90.8958 254.599C91.375 254.599 91.9115 254.656 92.3906 254.719C81.1562 249.818 70.8177 243.479 61.6146 236.01C41.5938 219.698 32.6302 207.505 23.1302 184.318C16.9115 169.198 13.5052 152.708 13.5052 135.615C13.5052 108.781 21.9323 83.3281 36.6354 62.1094C45.2969 49.7396 56.1146 38.8021 68.724 29.901C68.5469 29.9583 68.4271 29.9583 68.4271 29.9583C68.4271 29.9583 67.9479 20.5781 73.2083 13.2292C78.4635 5.9375 87.4896 3.42708 87.4896 3.42708C87.4896 3.42708 88.026 12.8073 82.7656 20.1615C82.2917 20.8177 81.75 21.474 81.2135 22.0729C86.4115 19.2031 91.9115 16.6354 97.5885 14.4219C99.2031 11.4323 102.25 6.83333 107.151 3.84375C114.859 -0.817711 124.182 0.437497 124.182 0.437497C124.182 0.437497 120.953 9.28125 113.245 13.9427C107.75 17.2917 101.474 17.5885 98.3073 17.5312C81.0938 24.224 65.974 34.3229 53.5469 46.7552C54.1406 46.3958 54.7396 46.0937 55.3958 45.7969C63.526 41.8542 72.6667 44.0052 72.6667 44.0052C72.6667 44.0052 68.6042 52.4896 60.4792 56.4323C53.125 59.9583 44.9375 58.526 43.4479 58.224C42.0104 60.0781 40.5781 61.9896 39.2604 63.9062C36.276 68.2083 33.526 72.6875 31.0781 77.349C31.5521 76.75 32.0937 76.2135 32.6302 75.7344C39.1458 69.4635 48.4635 68.6823 48.4635 68.6823C48.4635 68.6823 47.2708 78.0052 40.7552 84.224C34.2448 90.4948 24.9219 91.276 24.9219 91.276C24.9219 91.276 24.9219 91.0938 24.9792 90.8542C21.9948 98.5625 19.7812 106.63 18.4062 114.938C18.4062 114.88 18.4687 114.818 18.526 114.76C23.2448 107.109 32.151 104 32.151 104C32.151 104 33.2865 113.323 28.5052 120.974C25.099 126.474 19.6042 129.641 16.7344 130.953C16.6719 132.51 16.6719 134.062 16.6719 135.615C16.6719 142.786 17.2708 149.839 18.4687 156.651C18.526 156.172 18.5885 155.635 18.7031 155.156C20.5 146.312 27.7292 140.339 27.7292 140.339C27.7292 140.339 32.0312 148.641 30.2396 157.49C28.8073 164.599 23.8437 169.859 21.9323 171.651C24.3229 179.536 27.4896 187.188 31.3125 194.359C32.0312 186.891 36.2135 181.094 36.2135 181.094C36.2135 181.094 42.4896 188.026 43.026 197.047C43.2656 201.771 41.8906 206.13 40.5156 209.177C41.3542 210.312 42.1927 211.448 43.026 212.526C47.2708 218.026 51.9896 223.224 57.1302 227.943C53.4271 220.297 54.9219 211.75 54.9219 211.75C54.9219 211.75 63.6458 215.333 67.9479 223.224C71.2917 229.318 71.0573 236.193 70.8177 239.057C82.7656 247.427 96.276 253.938 111.036 258.005C124.182 260.276 137.625 265.531 149.578 272.286C161.474 265.531 175.036 260.214 188.182 258.005C203.245 253.818 217.047 247.125 229.177 238.464C228.943 235.354 228.943 228.958 232.047 223.224C236.349 215.333 245.073 211.75 245.073 211.75C245.073 211.75 246.391 219.281 243.464 226.568C248.063 222.208 252.245 217.484 256.13 212.526C257.146 211.214 258.161 209.839 259.12 208.464C257.865 205.417 256.729 201.411 256.969 197.047C257.505 188.026 263.781 181.094 263.781 181.094C263.781 181.094 267.484 186.234 268.5 193.047C272.146 186.052 275.135 178.641 277.344 170.995C275.193 168.781 271.01 163.88 269.755 157.49C267.964 148.641 272.266 140.339 272.266 140.339C272.266 140.339 279.021 145.896 281.109 154.203C282.005 148.167 282.484 141.948 282.484 135.615C282.484 133.943 282.427 132.208 282.365 130.536C279.375 128.984 274.536 125.932 271.49 120.974C266.708 113.323 267.844 104 267.844 104C267.844 104 275.552 106.693 280.453 113.266C279.078 105.677 276.99 98.2656 274.297 91.1562C271.906 90.8542 264.615 89.3594 259.24 84.224C252.724 78.0052 251.531 68.6823 251.531 68.6823C251.531 68.6823 260.495 69.401 266.948 75.3177C264.797 71.4323 262.464 67.6094 259.896 63.9062C258.583 62.0521 257.208 60.1979 255.771 58.3437C253.203 58.7656 246.031 59.5417 239.516 56.4323C231.328 52.4896 227.328 44.0052 227.328 44.0052C227.328 44.0052 236.411 41.8542 244.536 45.7344C232.286 33.724 217.469 23.9844 200.672 17.4687C197.448 17.5312 191.234 17.1719 185.854 13.8854C178.083 9.22396 174.917 0.380205 174.917 0.380205C174.917 0.380205 184.24 -0.875004 191.948 3.78645C196.849 6.77083 199.896 11.4323 201.51 14.4219C207.906 16.875 214 19.8021 219.797 23.0885C218.901 22.25 218.005 21.2344 217.229 20.1615C211.969 12.8073 212.505 3.42708 212.505 3.42708C212.505 3.42708 221.531 5.9375 226.786 13.2292C232.047 20.5781 231.568 29.9583 231.568 29.9583C231.568 29.9583 230.792 29.7812 229.536 29.2448C242.505 38.2656 253.62 49.4427 262.464 62.1094C277.224 83.3281 285.594 108.781 285.594 135.615C285.594 166.63 271.667 197.766 258.583 214.438C245.135 231.828 227.266 245.87 206.349 254.896C207.25 254.776 208.146 254.656 209.099 254.599C218.125 254.24 225.714 259.797 225.714 259.797C225.714 259.797 218.661 266.01 209.635 266.37C200.615 266.786 193.026 261.229 193.026 261.229C193.026 261.229 194.401 259.974 196.729 258.599C181.609 263.802 169.422 266.312 154.302 275.094C160.156 278.682 165.594 282.625 170.198 286.688C168.823 288.062 167.448 289.438 166.073 290.87C161.531 286.391 155.911 281.969 149.578 277.964C143.245 281.969 137.568 286.391 133.026 290.87C131.651 289.438 130.276 288.062 128.901 286.688C133.505 282.625 138.943 278.682 144.797 275.094C130.276 266.667 119.042 264.099 104.281 259.26ZM100.276 240.734C107.208 246.469 109.062 255.672 109.062 255.672C109.062 255.672 99.6823 255.552 92.75 249.818C85.7552 244.021 83.901 234.818 83.901 234.818C83.901 234.818 93.2865 234.938 100.276 240.734ZM49.2448 243.422C57.4896 247.125 66.5729 244.734 66.5729 244.734C66.5729 244.734 62.3281 236.37 54.0833 232.667C45.8958 228.958 36.7552 231.349 36.7552 231.349C36.7552 231.349 41.0573 239.719 49.2448 243.422ZM2.92708 160.896C6.8125 169.021 15.2969 173.083 15.2969 173.083C15.2969 173.083 17.4531 163.943 13.5677 155.755C9.68229 147.625 1.19791 143.562 1.19791 143.562C1.19791 143.562 -0.953127 152.766 2.92708 160.896ZM1.73437 114.698C2.57292 123.661 9.14583 130.417 9.14583 130.417C9.14583 130.417 14.3437 122.589 13.5052 113.562C12.6719 104.599 6.09375 97.849 6.09375 97.849C6.09375 97.849 0.895832 105.677 1.73437 114.698ZM16.375 71.4948C15 80.3958 19.6615 88.526 19.6615 88.526C19.6615 88.526 26.651 82.25 28.026 73.3438C29.4635 64.3802 24.8021 56.2552 24.8021 56.2552C24.8021 56.2552 17.8073 62.5312 16.375 71.4948ZM41.2969 36.7135C37.1719 44.7188 39.0833 53.9219 39.0833 53.9219C39.0833 53.9219 47.6875 50.099 51.8125 42.0938C55.9375 34.0833 54.026 24.8802 54.026 24.8802C54.026 24.8802 45.4167 28.6458 41.2969 36.7135ZM89.2812 35.5781C80.6146 38.2656 71.8906 34.8021 71.8906 34.8021C71.8906 34.8021 77.151 26.974 85.7552 24.3437C94.4219 21.651 103.146 25.1771 103.146 25.1771C103.146 25.1771 97.8854 32.9479 89.2812 35.5781ZM17.4531 207.266C23.3073 214.141 32.5104 215.932 32.5104 215.932C32.5104 215.932 32.2708 206.49 26.474 199.62C20.6198 192.745 11.3542 191.01 11.3542 191.01C11.3542 191.01 11.5937 200.396 17.4531 207.266ZM199.719 240.734C192.786 246.469 190.932 255.672 190.932 255.672C190.932 255.672 200.318 255.552 207.25 249.818C214.24 244.021 216.094 234.818 216.094 234.818C216.094 234.818 206.708 234.938 199.719 240.734ZM282.547 207.266C276.688 214.141 267.484 215.932 267.484 215.932C267.484 215.932 267.724 206.49 273.521 199.62C279.375 192.745 288.641 191.01 288.641 191.01C288.641 191.01 288.401 200.396 282.547 207.266ZM297.068 160.896C293.182 169.021 284.698 173.083 284.698 173.083C284.698 173.083 282.547 163.943 286.427 155.755C290.312 147.625 298.797 143.562 298.797 143.562C298.797 143.562 300.953 152.766 297.068 160.896ZM298.26 114.698C297.427 123.661 290.849 130.417 290.849 130.417C290.849 130.417 285.651 122.589 286.49 113.562C287.328 104.599 293.901 97.849 293.901 97.849C293.901 97.849 299.099 105.677 298.26 114.698ZM283.62 71.4948C284.995 80.3958 280.333 88.526 280.333 88.526C280.333 88.526 273.344 82.25 271.969 73.3438C270.531 64.3802 275.193 56.2552 275.193 56.2552C275.193 56.2552 282.188 62.5312 283.62 71.4948ZM258.703 36.7135C262.823 44.7188 260.911 53.9219 260.911 53.9219C260.911 53.9219 252.307 50.099 248.182 42.0938C244.057 34.0833 245.974 24.8802 245.974 24.8802C245.974 24.8802 254.578 28.6458 258.703 36.7135ZM210.714 35.5781C219.38 38.2656 228.104 34.8021 228.104 34.8021C228.104 34.8021 222.844 26.974 214.24 24.3437C205.573 21.651 196.849 25.1771 196.849 25.1771C196.849 25.1771 202.109 32.9479 210.714 35.5781ZM250.755 243.422C242.505 247.125 233.422 244.734 233.422 244.734C233.422 244.734 237.667 236.37 245.911 232.667C254.099 228.958 263.245 231.349 263.245 231.349C263.245 231.349 258.938 239.719 250.755 243.422Z" fill="#D99201"/>
<path d="M246.958 135.521C246.958 137.109 246.922 138.698 246.844 140.281C246.766 141.865 246.651 143.448 246.495 145.026C246.339 146.604 246.146 148.182 245.911 149.75C245.677 151.318 245.406 152.88 245.099 154.438C244.786 155.995 244.437 157.542 244.052 159.083C243.667 160.62 243.245 162.151 242.786 163.667C242.323 165.188 241.828 166.693 241.292 168.188C240.755 169.682 240.187 171.161 239.578 172.63C238.974 174.094 238.328 175.542 237.651 176.979C236.974 178.411 236.26 179.828 235.51 181.229C234.766 182.63 233.979 184.01 233.167 185.37C232.349 186.729 231.5 188.073 230.62 189.391C229.74 190.708 228.823 192.005 227.88 193.281C226.932 194.557 225.958 195.807 224.953 197.031C223.943 198.26 222.906 199.464 221.844 200.635C220.776 201.812 219.682 202.964 218.562 204.083C217.437 205.208 216.292 206.302 215.115 207.365C213.937 208.432 212.74 209.469 211.51 210.474C210.286 211.479 209.031 212.458 207.76 213.401C206.484 214.349 205.187 215.26 203.87 216.141C202.547 217.026 201.208 217.875 199.849 218.688C198.484 219.505 197.104 220.286 195.708 221.036C194.307 221.781 192.891 222.495 191.453 223.172C190.021 223.854 188.573 224.495 187.104 225.104C185.641 225.708 184.161 226.281 182.667 226.812C181.172 227.349 179.667 227.849 178.146 228.307C176.625 228.771 175.099 229.193 173.557 229.578C172.021 229.964 170.474 230.312 168.917 230.62C167.359 230.927 165.797 231.203 164.229 231.432C162.656 231.667 161.083 231.859 159.505 232.016C157.927 232.172 156.344 232.286 154.755 232.365C153.172 232.443 151.589 232.484 150 232.484C148.411 232.484 146.828 232.443 145.245 232.365C143.656 232.286 142.073 232.172 140.495 232.016C138.917 231.859 137.344 231.667 135.771 231.432C134.203 231.203 132.641 230.927 131.083 230.62C129.526 230.312 127.979 229.964 126.443 229.578C124.901 229.193 123.375 228.771 121.854 228.307C120.333 227.849 118.828 227.349 117.333 226.818C115.839 226.281 114.359 225.708 112.896 225.104C111.427 224.495 109.979 223.854 108.542 223.172C107.109 222.495 105.693 221.781 104.292 221.036C102.896 220.286 101.516 219.505 100.151 218.688C98.7916 217.875 97.4531 217.026 96.1302 216.141C94.8125 215.26 93.5156 214.349 92.2395 213.401C90.9687 212.458 89.7135 211.479 88.4895 210.474C87.2604 209.469 86.0625 208.432 84.8854 207.365C83.7083 206.302 82.5625 205.208 81.4375 204.083C80.3177 202.964 79.2239 201.812 78.1562 200.635C77.0937 199.464 76.0573 198.26 75.0468 197.031C74.0416 195.807 73.0677 194.557 72.1198 193.281C71.177 192.005 70.2604 190.708 69.3802 189.391C68.5 188.073 67.651 186.729 66.8333 185.37C66.0208 184.01 65.2343 182.63 64.4895 181.229C63.7395 179.828 63.026 178.411 62.3489 176.979C61.6718 175.542 61.026 174.094 60.4218 172.63C59.8125 171.161 59.2448 169.682 58.7083 168.188C58.1718 166.693 57.677 165.188 57.2135 163.667C56.7552 162.151 56.3333 160.62 55.9479 159.083C55.5625 157.542 55.2135 155.995 54.901 154.438C54.5937 152.88 54.3229 151.318 54.0885 149.75C53.8541 148.182 53.6614 146.604 53.5052 145.026C53.3489 143.448 53.2343 141.865 53.1562 140.281C53.0781 138.698 53.0416 137.109 53.0416 135.521C53.0416 133.938 53.0781 132.349 53.1562 130.766C53.2343 129.182 53.3489 127.599 53.5052 126.021C53.6614 124.438 53.8541 122.865 54.0885 121.297C54.3229 119.724 54.5937 118.161 54.901 116.609C55.2135 115.052 55.5625 113.505 55.9479 111.964C56.3333 110.422 56.7552 108.896 57.2135 107.375C57.677 105.859 58.1718 104.354 58.7083 102.859C59.2448 101.365 59.8125 99.8854 60.4218 98.4167C61.026 96.9531 61.6718 95.5 62.3489 94.0677C63.026 92.6302 63.7395 91.2135 64.4895 89.8177C65.2343 88.4167 66.0208 87.0365 66.8333 85.6771C67.651 84.3125 68.5 82.974 69.3802 81.6562C70.2604 80.3333 71.177 79.0365 72.1198 77.7656C73.0677 76.4896 74.0416 75.2396 75.0468 74.0104C76.0573 72.7865 77.0937 71.5833 78.1562 70.4062C79.2239 69.2344 80.3177 68.0833 81.4375 66.9635C82.5625 65.8385 83.7083 64.7448 84.8854 63.6823C86.0625 62.6146 87.2604 61.5781 88.4895 60.5729C89.7135 59.5677 90.9687 58.5885 92.2395 57.6458C93.5156 56.6979 94.8125 55.7865 96.1302 54.9062C97.4531 54.0208 98.7916 53.1719 100.151 52.3594C101.516 51.5417 102.896 50.7604 104.292 50.0104C105.693 49.2656 107.109 48.5521 108.542 47.8698C109.979 47.1927 111.427 46.5521 112.896 45.9427C114.359 45.3385 115.839 44.7656 117.333 44.2292C118.828 43.6979 120.333 43.1979 121.854 42.7396C123.375 42.276 124.901 41.8542 126.443 41.4688C127.979 41.0833 129.526 40.7344 131.083 40.4271C132.641 40.1146 134.203 39.8437 135.771 39.6146C137.344 39.3802 138.917 39.1875 140.495 39.0312C142.073 38.875 143.656 38.7552 145.245 38.6823C146.828 38.6042 148.411 38.5625 150 38.5625C151.589 38.5625 153.172 38.6042 154.755 38.6823C156.344 38.7552 157.927 38.875 159.505 39.0312C161.083 39.1875 162.656 39.3802 164.229 39.6146C165.797 39.8437 167.359 40.1146 168.917 40.4271C170.474 40.7344 172.021 41.0833 173.557 41.4688C175.099 41.8542 176.625 42.276 178.146 42.7396C179.667 43.1979 181.172 43.6979 182.667 44.2292C184.161 44.7656 185.641 45.3385 187.104 45.9427C188.573 46.5521 190.021 47.1927 191.453 47.8698C192.891 48.5521 194.307 49.2656 195.708 50.0104C197.104 50.7604 198.484 51.5417 199.849 52.3594C201.208 53.1719 202.547 54.0208 203.87 54.9062C205.187 55.7865 206.484 56.6979 207.76 57.6458C209.031 58.5885 210.286 59.5677 211.51 60.5729C212.74 61.5781 213.937 62.6146 215.115 63.6823C216.292 64.7448 217.437 65.8385 218.562 66.9635C219.682 68.0833 220.776 69.2344 221.844 70.4062C222.906 71.5833 223.943 72.7865 224.953 74.0104C225.958 75.2396 226.932 76.4896 227.88 77.7656C228.823 79.0365 229.74 80.3333 230.62 81.6562C231.5 82.974 232.349 84.3125 233.167 85.6771C233.979 87.0365 234.766 88.4167 235.51 89.8177C236.26 91.2135 236.974 92.6302 237.651 94.0677C238.328 95.5 238.974 96.9531 239.578 98.4167C240.187 99.8854 240.755 101.365 241.292 102.859C241.828 104.354 242.323 105.859 242.786 107.375C243.245 108.896 243.667 110.422 244.052 111.964C244.437 113.505 244.786 115.052 245.099 116.609C245.406 118.161 245.677 119.724 245.911 121.297C246.146 122.865 246.339 124.438 246.495 126.021C246.651 127.599 246.766 129.182 246.844 130.766C246.922 132.349 246.958 133.938 246.958 135.521Z" fill="#1A3F22"/>
<mask id="mask0_105_1794" style="mask-type:luminance" maskUnits="userSpaceOnUse" x="50" y="35" width="200" height="201">
<path d="M50 35.5208H250V235.521H50V35.5208Z" fill="white"/>
</mask>
<g mask="url(#mask0_105_1794)">
<path d="M150 35.5208C177.599 35.5208 202.599 46.724 220.719 64.8021C238.802 82.9219 250 107.922 250 135.521C250 163.125 238.802 188.125 220.719 206.245C202.599 224.323 177.599 235.521 150 235.521C122.401 235.521 97.401 224.323 79.2812 206.245C61.1979 188.125 50 163.125 50 135.521C50 107.922 61.1979 82.9219 79.2812 64.8021C97.401 46.724 122.401 35.5208 150 35.5208ZM216.401 69.125C199.401 52.1615 175.922 41.6406 150 41.6406C124.078 41.6406 100.599 52.1615 83.599 69.125C66.6406 86.125 56.1198 109.604 56.1198 135.521C56.1198 161.443 66.6406 184.922 83.599 201.922C100.599 218.885 124.078 229.401 150 229.401C175.922 229.401 199.401 218.885 216.401 201.922C233.359 184.922 243.88 161.443 243.88 135.521C243.88 109.604 233.359 86.125 216.401 69.125Z" fill="#D99201"/>
</g>
<path d="M214.562 135.521C214.562 137.635 214.458 139.745 214.25 141.849C214.042 143.953 213.734 146.042 213.318 148.12C212.906 150.193 212.396 152.24 211.781 154.266C211.167 156.286 210.453 158.276 209.646 160.229C208.839 162.182 207.932 164.094 206.938 165.958C205.938 167.823 204.854 169.63 203.677 171.391C202.505 173.151 201.245 174.844 199.906 176.479C198.562 178.115 197.146 179.677 195.651 181.172C194.156 182.667 192.589 184.089 190.958 185.427C189.323 186.771 187.625 188.026 185.87 189.203C184.109 190.375 182.297 191.464 180.432 192.458C178.568 193.458 176.661 194.359 174.708 195.167C172.75 195.979 170.766 196.688 168.74 197.302C166.719 197.917 164.667 198.432 162.594 198.844C160.521 199.255 158.432 199.563 156.328 199.771C154.224 199.979 152.115 200.083 150 200.083C147.885 200.083 145.776 199.979 143.672 199.771C141.568 199.563 139.479 199.255 137.406 198.844C135.333 198.432 133.281 197.917 131.26 197.302C129.234 196.688 127.25 195.979 125.292 195.167C123.339 194.359 121.432 193.458 119.568 192.458C117.703 191.464 115.891 190.375 114.13 189.203C112.375 188.026 110.677 186.771 109.042 185.427C107.411 184.089 105.844 182.667 104.349 181.172C102.854 179.677 101.438 178.115 100.094 176.479C98.7552 174.844 97.4948 173.151 96.3177 171.391C95.1458 169.63 94.0573 167.823 93.0625 165.958C92.0677 164.094 91.1615 162.182 90.3542 160.229C89.5469 158.276 88.8333 156.286 88.2188 154.266C87.6042 152.24 87.0937 150.193 86.6823 148.12C86.2656 146.042 85.9583 143.953 85.75 141.849C85.5417 139.745 85.4375 137.635 85.4375 135.521C85.4375 133.406 85.5417 131.297 85.75 129.193C85.9583 127.089 86.2656 125 86.6823 122.927C87.0937 120.854 87.6042 118.807 88.2188 116.781C88.8333 114.76 89.5469 112.771 90.3542 110.818C91.1615 108.865 92.0677 106.953 93.0625 105.089C94.0573 103.224 95.1458 101.411 96.3177 99.6563C97.4948 97.8959 98.7552 96.2031 100.094 94.5677C101.438 92.9323 102.854 91.3698 104.349 89.8698C105.844 88.375 107.411 86.9584 109.042 85.6198C110.677 84.2761 112.375 83.0156 114.13 81.8438C115.891 80.6667 117.703 79.5834 119.568 78.5886C121.432 77.5886 123.339 76.6875 125.292 75.875C127.25 75.0677 129.234 74.3542 131.26 73.7448C133.281 73.1302 135.333 72.6146 137.406 72.2031C139.479 71.7917 141.568 71.4792 143.672 71.2761C145.776 71.0677 147.885 70.9636 150 70.9636C152.115 70.9636 154.224 71.0677 156.328 71.2761C158.432 71.4792 160.521 71.7917 162.594 72.2031C164.667 72.6146 166.719 73.1302 168.74 73.7448C170.766 74.3542 172.75 75.0677 174.708 75.875C176.661 76.6875 178.568 77.5886 180.432 78.5886C182.297 79.5834 184.109 80.6667 185.87 81.8438C187.625 83.0156 189.323 84.2761 190.958 85.6198C192.589 86.9584 194.156 88.375 195.651 89.8698C197.146 91.3698 198.562 92.9323 199.906 94.5677C201.245 96.2031 202.505 97.8959 203.677 99.6563C204.854 101.411 205.938 103.224 206.938 105.089C207.932 106.953 208.839 108.865 209.646 110.818C210.453 112.771 211.167 114.76 211.781 116.781C212.396 118.807 212.906 120.854 213.318 122.927C213.734 125 214.042 127.089 214.25 129.193C214.458 131.297 214.562 133.406 214.562 135.521Z" fill="#1A3F22"/>
<path d="M150 67.8854C168.682 67.8854 185.599 75.4427 197.839 87.6823C210.078 99.9219 217.641 116.844 217.641 135.521C217.641 154.203 210.078 171.125 197.839 183.365C185.599 195.604 168.682 203.161 150 203.161C131.318 203.161 114.401 195.604 102.161 183.365C89.9219 171.125 82.3594 154.203 82.3594 135.521C82.3594 116.844 89.9219 99.9219 102.161 87.6823C114.401 75.4427 131.318 67.8854 150 67.8854ZM193.521 92.0052C182.359 80.8854 167 74.0052 150 74.0052C133 74.0052 117.641 80.8854 106.479 92.0052C95.3594 103.161 88.4792 118.521 88.4792 135.521C88.4792 152.521 95.3594 167.885 106.479 179.042C117.641 190.161 133 197.042 150 197.042C167 197.042 182.359 190.161 193.521 179.042C204.641 167.885 211.521 152.521 211.521 135.521C211.521 118.521 204.641 103.161 193.521 92.0052Z" fill="#D99201"/>
<path fill-rule="evenodd" clip-rule="evenodd" d="M150 200.083C125.719 200.083 104.599 186.724 93.5625 166.922L87.2812 184.802L65.2812 182.641C81.8385 212.365 113.562 232.484 150 232.484C186.438 232.484 218.161 212.365 234.719 182.641L212.719 184.802L206.438 166.922C195.401 186.724 174.281 200.083 150 200.083Z" fill="#1A3F22"/>
<mask id="mask1_105_1794" style="mask-type:luminance" maskUnits="userSpaceOnUse" x="58" y="159" width="184" height="77">
<path d="M58.6666 159H241.333V235.521H58.6666V159Z" fill="white"/>
</mask>
<g mask="url(#mask1_105_1794)">
<path d="M150 203.161C137.521 203.161 125.839 199.76 115.802 193.844C107.24 188.844 99.9218 182.042 94.3177 173.922L90.1614 185.802L89.3593 188.042L87 187.844L71 186.281C78.9583 198.641 89.7604 209.042 102.479 216.521C116.401 224.724 132.641 229.401 150 229.401C167.359 229.401 183.599 224.724 197.521 216.521C210.24 209.042 221.042 198.641 229 186.281L213 187.844L210.641 188.042L209.839 185.802L205.682 173.922C200.078 182.042 192.76 188.844 184.198 193.844C174.161 199.76 162.479 203.161 150 203.161ZM118.88 188.604C128 193.964 138.641 197.042 150 197.042C161.359 197.042 172 193.964 181.12 188.604C190.599 183.042 198.437 175.042 203.802 165.443L207.078 159.521L209.318 165.922L214.802 181.521L234.437 179.604L240.24 179.042L237.401 184.125C228.719 199.724 215.958 212.76 200.599 221.76C185.76 230.521 168.437 235.521 150 235.521C131.562 235.521 114.24 230.521 99.401 221.76C84.0416 212.76 71.2812 199.724 62.5989 184.125L59.7604 179.042L65.5625 179.604L85.1979 181.521L90.6823 165.922L92.9218 159.521L96.1979 165.443C101.562 175.042 109.401 183.042 118.88 188.604Z" fill="#D99201"/>
</g>
<mask id="mask2_105_1794" style="mask-type:luminance" maskUnits="userSpaceOnUse" x="62" y="153" width="22" height="24">
<path d="M62.6666 153.667H84V176.333H62.6666V153.667Z" fill="white"/>
</mask>
<g mask="url(#mask2_105_1794)">
<mask id="mask3_105_1794" style="mask-type:luminance" maskUnits="userSpaceOnUse" x="61" y="150" width="27" height="28">
<path d="M61.026 158.469L80.5104 150.641L87.9635 169.198L68.4791 177.026L61.026 158.469Z" fill="white"/>
</mask>
<g mask="url(#mask3_105_1794)">
<mask id="mask4_105_1794" style="mask-type:luminance" maskUnits="userSpaceOnUse" x="61" y="150" width="27" height="28">
<path d="M61.026 158.469L80.5104 150.641L87.9635 169.198L68.4791 177.026L61.026 158.469Z" fill="white"/>
</mask>
<g mask="url(#mask4_105_1794)">
<path fill-rule="evenodd" clip-rule="evenodd" d="M70.5833 154.625L75.3854 161.615L82.9218 157.729L77.7604 164.458L83.7864 170.422L75.7916 167.594L71.9791 175.167L72.1979 166.693L63.8229 165.401L71.9479 162.995L70.5833 154.625Z" fill="#D99201"/>
</g>
</g>
</g>
<mask id="mask5_105_1794" style="mask-type:luminance" maskUnits="userSpaceOnUse" x="216" y="153" width="22" height="24">
<path d="M216 153.667H237.333V176.333H216V153.667Z" fill="white"/>
</mask>
<g mask="url(#mask5_105_1794)">
<mask id="mask6_105_1794" style="mask-type:luminance" maskUnits="userSpaceOnUse" x="212" y="150" width="28" height="28">
<path d="M219.943 150.615L239.349 158.63L231.714 177.115L212.302 169.099L219.943 150.615Z" fill="white"/>
</mask>
<g mask="url(#mask6_105_1794)">
<mask id="mask7_105_1794" style="mask-type:luminance" maskUnits="userSpaceOnUse" x="212" y="150" width="28" height="28">
<path d="M219.943 150.615L239.349 158.63L231.714 177.115L212.302 169.099L219.943 150.615Z" fill="white"/>
</mask>
<g mask="url(#mask7_105_1794)">
<path fill-rule="evenodd" clip-rule="evenodd" d="M229.464 154.547L228.016 162.901L236.12 165.391L227.729 166.594L227.865 175.068L224.125 167.464L216.109 170.214L222.188 164.302L217.094 157.526L224.594 161.484L229.464 154.547Z" fill="#D99201"/>
</g>
</g>
</g>
<path d="M75.1337 138.434L74.8421 138.413C74.7483 138.09 74.5504 137.783 74.2587 137.476C73.9567 137.174 73.4567 136.851 72.7587 136.517L63.3212 131.996C62.9462 131.819 62.5712 131.809 62.1962 131.976L61.5921 132.184L60.8004 130.08L73.4879 125.684C74.1962 125.45 74.7275 125.205 75.0712 124.955C75.4046 124.705 75.6337 124.465 75.7587 124.226L76.0504 124.246L75.8004 128.059L75.5087 128.038C75.4254 127.679 75.2223 127.538 74.9046 127.621C74.5712 127.694 74.0452 127.845 73.3212 128.08L70.2587 129.142L69.9046 134.705L72.7796 136.121C73.4775 136.455 73.9983 136.611 74.3421 136.58C74.6754 136.538 74.8942 136.345 74.9879 135.996L75.2796 136.017L75.1337 138.434ZM69.5921 134.559L69.9254 129.267L63.2796 131.559L69.5921 134.559Z" fill="#D99201"/>
<path d="M76.9778 120.279L76.707 120.195C76.6966 119.836 76.5351 119.56 76.2278 119.362C75.9101 119.154 75.3841 118.945 74.6445 118.737L65.6653 116.195C64.9466 115.987 64.4049 115.893 64.0403 115.904C63.6653 115.904 63.3737 116.06 63.1653 116.362L62.8737 116.279L63.9362 112.529L64.2278 112.612C64.2434 112.977 64.4101 113.253 64.7278 113.445C65.0351 113.643 65.5507 113.841 66.2695 114.05L76.457 116.925C77.1237 117.123 77.5507 116.883 77.7487 116.216L78.207 114.55C78.4987 113.539 78.5664 112.706 78.4153 112.05C78.2747 111.383 77.832 110.716 77.082 110.05L77.207 109.779L79.707 110.675L76.9778 120.279Z" fill="#D99201"/>
<path d="M77.2283 103.683L76.9366 103.537L79.3325 98.6208L79.6241 98.7666L77.2283 103.683Z" fill="#D99201"/>
<path d="M93.3254 87.57C92.9764 88.0283 92.5962 88.32 92.1796 88.445C91.7733 88.57 91.2837 88.5804 90.7004 88.4658C90.1171 88.3564 89.3931 88.195 88.5337 87.9866C87.7421 87.7783 87.0754 87.6064 86.5337 87.4658C85.9921 87.3147 85.5441 87.2262 85.1796 87.195C84.8046 87.1533 84.4816 87.2106 84.2004 87.3616C83.9087 87.5022 83.6327 87.7575 83.3671 88.1325L82.6379 89.1116L86.5337 92.0075C87.1431 92.4658 87.6171 92.7575 87.9504 92.8825C88.2941 93.0075 88.6223 92.9658 88.9296 92.7575L89.1587 92.9241L86.8462 96.0491L86.6171 95.8825C86.7264 95.5387 86.6691 95.2158 86.4504 94.9241C86.2316 94.6325 85.815 94.2575 85.2004 93.7991L77.7004 88.2366C77.1066 87.7939 76.6327 87.5075 76.2837 87.3825C75.94 87.2575 75.6119 87.2991 75.3046 87.5075L75.0546 87.32L77.6796 83.7991C78.3619 82.872 78.9921 82.1741 79.5754 81.7158C80.1587 81.2575 80.6952 80.9658 81.1796 80.8408C81.6691 80.7054 82.1171 80.695 82.5337 80.82C82.9504 80.9345 83.3254 81.1116 83.6587 81.3616C84.44 81.9345 84.8983 82.6897 85.0337 83.6325C85.1744 84.5804 84.8983 85.6533 84.2004 86.8616C84.6066 86.4345 84.9869 86.1116 85.3462 85.9033C85.7108 85.695 86.0962 85.5804 86.5129 85.5491C86.9296 85.5231 87.3931 85.5647 87.9087 85.6741C88.4191 85.7731 89.0546 85.9137 89.8046 86.0908C90.7629 86.3408 91.4921 86.5283 91.9921 86.6533C92.5025 86.7679 92.8775 86.7991 93.1171 86.7575C93.3514 86.7054 93.5441 86.57 93.7004 86.3616C93.7264 86.32 93.7525 86.2783 93.7837 86.2366C93.8098 86.195 93.8358 86.1533 93.8671 86.1116L94.0962 86.2783C93.9973 86.5022 93.8723 86.7366 93.7212 86.9866C93.565 87.2262 93.4348 87.4189 93.3254 87.57ZM82.3671 88.9241L83.1587 87.8616C83.6327 87.2106 83.9087 86.6116 83.9921 86.07C84.065 85.5283 83.9816 85.0387 83.7421 84.5908C83.5077 84.1481 83.1744 83.7679 82.7421 83.445C82.2837 83.1116 81.7629 82.8929 81.1796 82.7783C80.5962 82.6533 80.0077 82.7054 79.4087 82.9241C78.815 83.1481 78.2525 83.622 77.7212 84.3408C77.5441 84.5804 77.3775 84.8356 77.2212 85.1116L82.3671 88.9241Z" fill="#D99201"/>
<path d="M95.9041 84.2441L95.7166 84.0149C95.8989 83.7233 95.9979 83.3691 96.0083 82.9524C96.0083 82.5254 95.8781 81.9472 95.6125 81.2233L92.2375 71.3066C92.1021 70.9212 91.8521 70.6399 91.4875 70.4733L90.8833 70.2233L91.8416 68.1608L103.842 74.1608C104.519 74.4941 105.071 74.692 105.487 74.7441C105.904 74.8014 106.237 74.7962 106.487 74.7233L106.675 74.9524L103.779 77.4524L103.592 77.2233C103.8 76.9056 103.758 76.6608 103.467 76.4941C103.185 76.317 102.706 76.0566 102.029 75.7233L99.1333 74.2649L94.9041 77.9108L95.9041 80.9524C96.1698 81.692 96.425 82.1608 96.675 82.3691C96.9354 82.5774 97.2271 82.5983 97.55 82.4316L97.7375 82.6608L95.9041 84.2441ZM94.7583 77.5566L98.7791 74.0774L92.5083 70.9524L94.7583 77.5566Z" fill="#D99201"/>
<path d="M109.979 72.7615L109.854 72.5115C110.104 72.2511 110.193 71.9386 110.125 71.574C110.052 71.2146 109.839 70.6938 109.479 70.0115L105.209 61.7198C104.875 61.0532 104.584 60.5896 104.334 60.324C104.073 60.048 103.766 59.9386 103.417 59.9907L103.271 59.7198L106.729 57.949L106.875 58.2198C106.615 58.4698 106.516 58.7823 106.584 59.1573C106.657 59.5219 106.854 60.0323 107.188 60.699L109.042 64.2823L115.542 60.949L113.688 57.3657C113.354 56.699 113.052 56.2355 112.792 55.9698C112.526 55.6938 112.219 55.5844 111.875 55.6365L111.729 55.3657L115.188 53.5948L115.334 53.8657C115.052 54.1313 114.948 54.449 115.021 54.824C115.104 55.1886 115.313 55.699 115.646 56.3657L119.917 64.6573C120.276 65.3396 120.584 65.8136 120.834 66.074C121.084 66.3396 121.396 66.4438 121.771 66.3865L121.896 66.6365L118.438 68.4073L118.313 68.1573C118.563 67.8969 118.651 67.5844 118.584 67.2198C118.526 66.8605 118.318 66.3396 117.959 65.6573L115.709 61.2823L109.209 64.6157L111.459 68.9907C111.818 69.673 112.125 70.1469 112.375 70.4073C112.636 70.673 112.948 70.7823 113.313 70.7407L113.438 70.9907L109.979 72.7615Z" fill="#D99201"/>
<path d="M126.578 64.7911L126.515 64.4994C126.817 64.3327 126.984 64.0723 127.015 63.7077C127.057 63.3327 126.994 62.7702 126.828 62.0202L125.119 54.1244C124.942 53.2911 124.744 52.6556 124.536 52.2077C124.328 51.7494 124.099 51.4317 123.849 51.2494C123.599 51.0567 123.307 50.9369 122.974 50.8952L122.911 50.5827L125.974 49.9161L132.849 57.2286L135.828 47.7702L138.744 47.1452L138.807 47.4577C138.515 47.64 138.291 47.8692 138.14 48.1452C137.984 48.4109 137.911 48.7911 137.911 49.2911C137.922 49.7806 138.021 50.4369 138.203 51.2702L139.911 59.1661C140.078 59.9161 140.244 60.4577 140.411 60.7911C140.578 61.114 140.849 61.2859 141.224 61.3119L141.286 61.6036L137.474 62.4369L137.411 62.1452C137.713 61.9682 137.88 61.6973 137.911 61.3327C137.953 60.9577 137.89 60.3952 137.724 59.6452L135.578 49.7494L132.515 59.4161L132.057 59.5202L125.119 52.2286L126.953 60.7077C127.13 61.5411 127.328 62.1869 127.536 62.6452C127.744 63.0932 127.984 63.4109 128.265 63.6036C128.557 63.7859 128.89 63.8848 129.265 63.8952L129.328 64.1869L126.578 64.7911Z" fill="#D99201"/>
<path d="M145.621 61.209L145.642 60.9173C145.965 60.8236 146.267 60.6204 146.559 60.3132C146.851 60.0111 147.147 59.5007 147.455 58.7923L151.726 49.2298C151.892 48.8444 151.892 48.4694 151.726 48.1048L151.476 47.5007L153.559 46.6465L158.309 59.209C158.569 59.9173 158.835 60.4382 159.101 60.7715C159.361 61.0944 159.611 61.3132 159.851 61.4382L159.83 61.7298L156.017 61.584L156.038 61.2923C156.397 61.1986 156.528 60.9902 156.434 60.6673C156.351 60.3496 156.173 59.834 155.913 59.1257L154.767 56.084L149.184 55.8757L147.851 58.8132C147.543 59.5111 147.413 60.0319 147.455 60.3757C147.507 60.709 147.71 60.9173 148.059 61.0007L148.038 61.2923L145.621 61.209ZM149.33 55.5423L154.642 55.7298L152.163 49.1673L149.33 55.5423Z" fill="#D99201"/>
<path d="M163.729 62.377L163.812 62.1062C164.172 62.0801 164.448 61.9135 164.646 61.6062C164.854 61.2885 165.052 60.7624 165.25 60.0228L167.771 51.0228C167.964 50.3041 168.052 49.7624 168.042 49.3978C168.042 49.0228 167.885 48.7416 167.583 48.5437L167.667 48.252L171.417 49.2937L171.333 49.5853C170.969 49.601 170.693 49.7676 170.5 50.0853C170.302 50.3926 170.109 50.9083 169.917 51.627L168.833 55.5228L175.854 57.4812L176.937 53.5853C177.13 52.8666 177.229 52.3249 177.229 51.9603C177.229 51.5853 177.068 51.3041 176.75 51.1062L176.833 50.8145L180.583 51.8562L180.5 52.1478C180.135 52.1635 179.854 52.3301 179.646 52.6478C179.448 52.9551 179.255 53.4708 179.062 54.1895L176.542 63.1895C176.344 63.9239 176.25 64.4708 176.25 64.8353C176.26 65.2103 176.422 65.502 176.729 65.7103L176.646 65.9812L172.896 64.9395L172.979 64.6687C173.354 64.6374 173.635 64.4656 173.833 64.1478C174.026 63.8406 174.219 63.3197 174.417 62.5853L175.75 57.8353L168.729 55.877L167.396 60.627C167.198 61.3666 167.104 61.9135 167.104 62.2728C167.104 62.6478 167.255 62.9395 167.562 63.1478L167.479 63.4187L163.729 62.377Z" fill="#D99201"/>
<path d="M201.359 65.9359C201.567 65.2171 201.656 64.6442 201.63 64.2276C201.614 63.8109 201.546 63.488 201.421 63.2484L201.609 62.9984L204.609 65.3109L204.421 65.5609C204.072 65.4255 203.838 65.514 203.713 65.8317C203.599 66.139 203.442 66.6546 203.234 67.3734L202.526 69.9776L204.776 68.5817C205.401 68.1807 205.786 67.8265 205.942 67.5192C206.093 67.2015 206.057 66.9046 205.838 66.6234L206.026 66.3734L207.942 67.8526L207.755 68.1026C207.432 68.0088 207.067 68.0088 206.651 68.1026C206.234 68.1859 205.703 68.4255 205.067 68.8109L202.38 70.4776L200.546 77.2692L209.046 71.8734C209.682 71.4671 210.078 71.113 210.234 70.8109C210.385 70.4932 210.343 70.1963 210.109 69.9151L210.296 69.6651L212.234 71.1651L212.046 71.4151C211.724 71.3005 211.359 71.2901 210.942 71.3734C210.526 71.4671 210.005 71.7171 209.38 72.1234L198.463 79.0817L197.88 78.6234L199.796 71.5609L193.505 75.2692L192.88 74.7901L196.609 62.2901C196.828 61.5817 196.932 61.0192 196.921 60.6026C196.906 60.1859 196.843 59.8682 196.734 59.6442L196.921 59.3942L199.921 61.7067L199.734 61.9567C199.385 61.8213 199.151 61.9099 199.026 62.2276C198.901 62.5349 198.724 63.0401 198.505 63.7484L195.588 73.5192L199.963 71.0192L201.359 65.9359Z" fill="#D99201"/>
<path d="M205.93 86.1974L206.16 86.0099C206.451 86.2287 206.769 86.2703 207.118 86.1349C207.462 85.9943 207.936 85.6974 208.535 85.2391L215.91 79.5099C216.503 79.0516 216.91 78.6766 217.118 78.3849C217.337 78.0828 217.394 77.7547 217.285 77.4058L217.514 77.2183L223.68 85.1766L221.472 87.1766L221.264 86.9891C221.805 86.0151 222.014 85.1453 221.889 84.3641C221.764 83.5724 221.337 82.7183 220.618 81.8016L219.118 79.8433L214.16 83.6974L215.389 85.2808C215.915 85.9578 216.373 86.4578 216.764 86.7808C217.149 87.0985 217.503 87.2703 217.826 87.3016C218.16 87.3433 218.498 87.3016 218.847 87.1766L219.035 87.4058L216.264 89.5724L216.076 89.3433C216.295 89.0099 216.43 88.6766 216.472 88.3433C216.524 88.0203 216.441 87.6349 216.222 87.1766C216.014 86.7183 215.644 86.1453 215.118 85.4683L213.889 83.8849L208.889 87.7808C208.347 88.1974 208.285 88.6818 208.701 89.2391L209.951 90.8433C210.587 91.6766 211.285 92.2599 212.035 92.5933C212.795 92.937 213.722 92.937 214.805 92.5933L214.93 92.8224L212.43 94.5724L205.93 86.1974Z" fill="#D99201"/>
<path d="M215.171 99.0993L215.442 98.9743C215.692 99.2348 215.994 99.3337 216.358 99.266C216.718 99.2087 217.238 99.016 217.921 98.6827L226.317 94.5993C226.983 94.266 227.452 93.9848 227.733 93.7452C228.009 93.4952 228.119 93.1827 228.067 92.8077L228.358 92.6827L230.046 96.1827L229.754 96.3077C229.515 96.0577 229.212 95.9639 228.837 96.016C228.473 96.0733 227.962 96.266 227.296 96.5993L217.775 101.224C217.15 101.526 216.988 101.995 217.296 102.62L218.046 104.183C218.515 105.125 219.03 105.797 219.587 106.204C220.14 106.605 220.91 106.797 221.9 106.787L221.983 107.058L219.525 108.079L215.171 99.0993Z" fill="#D99201"/>
<path d="M221.22 112.752L221.512 112.668C221.689 112.986 221.97 113.153 222.345 113.168C222.72 113.179 223.272 113.09 224.012 112.898L233.053 110.564C233.772 110.372 234.288 110.184 234.595 110.002C234.913 109.809 235.085 109.523 235.116 109.148L235.428 109.064L236.407 112.856L236.095 112.939C235.887 112.616 235.6 112.45 235.241 112.439C234.876 112.439 234.335 112.533 233.616 112.731L223.366 115.377C222.684 115.543 222.428 115.96 222.595 116.627L223.032 118.314C223.293 119.325 223.657 120.085 224.116 120.585C224.585 121.096 225.314 121.45 226.303 121.648L226.324 121.918L223.72 122.418L221.22 112.752Z" fill="#D99201"/>
<path d="M224.495 132.364C224.437 131.291 224.536 130.286 224.786 129.343C225.036 128.396 225.339 127.656 225.703 127.114L228.849 126.864L228.911 127.135C228.13 127.468 227.437 127.906 226.828 128.448C226.214 129 225.734 129.646 225.391 130.385C225.057 131.119 224.917 131.953 224.974 132.885C224.984 133.369 225.104 133.812 225.328 134.218C225.562 134.619 225.88 134.937 226.286 135.177C226.687 135.427 227.182 135.536 227.766 135.51C228.276 135.479 228.714 135.307 229.078 134.989C229.437 134.682 229.75 134.302 230.016 133.843C230.276 133.385 230.505 132.89 230.703 132.364C230.896 131.849 231.068 131.375 231.224 130.948C231.484 130.224 231.75 129.552 232.016 128.927C232.276 128.312 232.641 127.812 233.099 127.427C233.557 127.036 234.193 126.823 235.016 126.781C236.307 126.708 237.354 127.14 238.161 128.073C238.979 129 239.432 130.291 239.516 131.948C239.557 132.708 239.516 133.432 239.391 134.114C239.266 134.807 239.078 135.432 238.828 135.989L236.141 136.239L236.036 135.989C237.078 135.5 237.859 134.828 238.391 133.968C238.917 133.119 239.151 132.182 239.099 131.156C239.057 130.323 238.786 129.625 238.286 129.073C237.797 128.531 237.146 128.281 236.328 128.323C235.87 128.349 235.464 128.479 235.12 128.718C234.786 128.968 234.5 129.286 234.266 129.677C234.042 130.078 233.849 130.5 233.682 130.948C233.526 131.406 233.375 131.849 233.224 132.281C233.042 132.823 232.849 133.369 232.641 133.927C232.432 134.479 232.182 134.994 231.891 135.468C231.609 135.937 231.25 136.328 230.807 136.635C230.375 136.953 229.849 137.125 229.224 137.156C228.516 137.198 227.87 137.078 227.286 136.802C226.714 136.536 226.229 136.166 225.828 135.698C225.422 135.239 225.109 134.718 224.891 134.135C224.667 133.562 224.536 132.974 224.495 132.364Z" fill="#D99201"/>
<path d="M103.041 209.569C101.707 208.678 100.707 207.662 100.041 206.527C99.3843 205.402 99.0875 204.214 99.1448 202.964C99.2125 201.704 99.6708 200.433 100.52 199.152C101.145 198.235 101.884 197.501 102.749 196.944C103.624 196.392 104.561 196.027 105.561 195.86C106.572 195.683 107.614 195.725 108.686 195.985C109.754 196.235 110.796 196.704 111.811 197.381C112.311 197.714 112.78 198.105 113.228 198.548C113.686 198.98 114.087 199.402 114.436 199.819C114.78 200.225 115.02 200.579 115.145 200.881L113.811 202.985L113.624 202.902C113.817 201.892 113.686 200.881 113.228 199.881C112.77 198.871 112.025 198.017 110.999 197.319C110.082 196.709 109.114 196.355 108.103 196.256C107.087 196.162 106.093 196.371 105.124 196.881C104.166 197.397 103.291 198.235 102.499 199.402C101.957 200.225 101.546 201.1 101.27 202.027C100.989 202.944 100.879 203.871 100.936 204.798C101.004 205.725 101.27 206.6 101.728 207.423C102.186 208.241 102.864 208.954 103.77 209.569C104.712 210.194 105.692 210.496 106.707 210.485C107.733 210.47 108.733 210.1 109.707 209.381L109.895 209.527L108.103 211.589C107.546 211.548 106.801 211.366 105.874 211.048C104.957 210.725 104.009 210.235 103.041 209.569Z" fill="#D99201"/>
<path d="M114.47 215.859L114.554 215.609C114.897 215.619 115.184 215.505 115.408 215.255C115.627 214.994 115.887 214.458 116.179 213.651L119.366 204.88C119.658 204.062 119.793 203.484 119.783 203.151C119.783 202.817 119.647 202.546 119.387 202.338L119.47 202.067L122.658 203.234L122.575 203.505C122.241 203.494 121.96 203.609 121.741 203.859C121.533 204.109 121.283 204.645 120.991 205.463L119.595 209.276L127.095 212.005L128.491 208.192C128.783 207.374 128.918 206.796 128.908 206.463C128.908 206.13 128.772 205.869 128.512 205.671L128.595 205.401L131.762 206.546L131.679 206.817C131.345 206.807 131.064 206.921 130.845 207.171C130.637 207.421 130.387 207.958 130.095 208.776L126.908 217.546C126.616 218.348 126.47 218.921 126.47 219.255C126.47 219.598 126.595 219.88 126.845 220.088L126.762 220.338L123.595 219.192L123.679 218.942C124.022 218.942 124.309 218.807 124.533 218.546C124.752 218.296 125.012 217.765 125.304 216.963L126.991 212.317L119.491 209.588L117.804 214.234C117.512 215.041 117.366 215.609 117.366 215.942C117.366 216.286 117.491 216.567 117.741 216.776L117.658 217.026L114.47 215.859Z" fill="#D99201"/>
<path d="M132.663 221.8L132.705 221.529C132.996 221.462 133.293 221.3 133.601 221.05C133.918 220.8 134.288 220.3 134.705 219.55L139.996 209.883C140.163 209.566 140.189 209.248 140.08 208.925L139.934 208.467L141.601 207.925L145.246 220.821C145.465 221.644 145.689 222.201 145.913 222.508C146.132 222.826 146.351 223.05 146.559 223.175L146.517 223.446L143.288 223.071L143.33 222.8C143.663 222.743 143.814 222.571 143.788 222.279C143.772 221.988 143.647 221.435 143.413 220.613L142.496 217.425L136.642 216.717L135.038 219.592C134.371 220.842 134.371 221.581 135.038 221.8L134.996 222.071L132.663 221.8ZM136.809 216.425L142.413 217.092L140.371 209.904L136.809 216.425Z" fill="#D99201"/>
<path d="M163.322 222.482C162.806 222.539 162.374 222.456 162.03 222.232C161.697 221.998 161.39 221.644 161.114 221.17C160.832 220.685 160.509 220.102 160.134 219.42C159.759 218.727 159.436 218.123 159.176 217.607C158.926 217.081 158.66 216.649 158.384 216.315C158.103 215.982 157.765 215.748 157.364 215.607C156.973 215.456 156.468 215.409 155.843 215.461L154.509 215.586L154.989 220.461C155.072 221.31 155.181 221.894 155.322 222.211C155.473 222.519 155.718 222.706 156.051 222.774L156.072 223.045L152.697 223.357L152.676 223.086C152.978 222.961 153.176 222.732 153.259 222.399C153.353 222.065 153.364 221.477 153.28 220.628L152.384 211.336C152.301 210.477 152.181 209.899 152.03 209.607C151.89 209.305 151.655 209.118 151.322 209.045L151.301 208.753L155.405 208.357C156.822 208.222 157.936 208.263 158.759 208.482C159.577 208.69 160.176 209.024 160.551 209.482C160.926 209.94 161.145 210.482 161.218 211.107C161.301 212.081 161.02 212.94 160.384 213.69C159.759 214.44 158.78 214.961 157.447 215.253C158.082 215.269 158.614 215.357 159.03 215.524C159.447 215.69 159.801 215.935 160.093 216.253C160.395 216.56 160.676 216.951 160.926 217.42C161.186 217.878 161.478 218.42 161.801 219.045C162.218 219.826 162.556 220.435 162.822 220.878C163.082 221.326 163.322 221.628 163.53 221.795C163.749 221.961 163.978 222.039 164.218 222.024C164.285 222.013 164.343 222.003 164.384 222.003C164.436 222.003 164.494 221.993 164.551 221.961L164.572 222.211C164.416 222.284 164.223 222.347 163.989 222.399C163.749 222.44 163.53 222.472 163.322 222.482ZM154.489 215.274L156.239 215.107C157.431 214.998 158.285 214.638 158.801 214.024C159.327 213.399 159.551 212.638 159.468 211.732C159.41 211.123 159.207 210.576 158.864 210.086C158.53 209.602 158.03 209.232 157.364 208.982C156.707 208.732 155.869 208.659 154.843 208.753C154.686 208.769 154.53 208.789 154.364 208.815C154.197 208.831 154.03 208.852 153.864 208.878L154.489 215.274Z" fill="#D99201"/>
<path d="M170.275 220.779L170.213 220.508C170.489 220.341 170.64 220.086 170.671 219.737C170.713 219.393 170.619 218.799 170.4 217.966L167.984 208.966C167.765 208.133 167.557 207.586 167.359 207.32C167.166 207.044 166.9 206.898 166.567 206.883L166.484 206.612L169.775 205.737L169.859 206.008C169.577 206.19 169.421 206.445 169.379 206.779C169.338 207.112 169.426 207.695 169.65 208.529L172.067 217.529C172.286 218.362 172.494 218.924 172.692 219.216C172.9 219.497 173.171 219.633 173.504 219.633L173.567 219.904L170.275 220.779Z" fill="#D99201"/>
<path d="M183.163 216.489L183.059 216.239C183.309 216.03 183.418 215.759 183.392 215.426C183.361 215.082 183.174 214.509 182.83 213.718L178.08 203.093L177.142 203.509C176.299 203.884 175.705 204.312 175.371 204.78C175.038 205.239 174.866 205.884 174.851 206.718L174.621 206.78L173.788 204.614L183.642 200.218L184.705 202.28L184.496 202.405C183.882 201.864 183.293 201.567 182.726 201.509C182.153 201.442 181.439 201.603 180.58 201.989L179.684 202.384L184.434 213.009C184.778 213.801 185.069 214.322 185.309 214.572C185.543 214.812 185.83 214.905 186.163 214.864L186.267 215.114L183.163 216.489Z" fill="#D99201"/>
<path d="M197.778 208.549L197.612 208.32C197.82 208.07 197.883 207.778 197.799 207.445C197.716 207.111 197.414 206.606 196.903 205.924L194.633 202.695L188.737 199.861C187.976 199.486 187.393 199.289 186.987 199.257C186.586 199.216 186.268 199.216 186.028 199.257L185.862 199.007L188.57 197.091L188.737 197.341C188.544 197.606 188.565 197.82 188.799 197.986C189.023 198.143 189.523 198.393 190.299 198.736L195.674 201.278L195.049 195.382C194.976 194.648 194.846 194.148 194.653 193.882C194.476 193.622 194.195 193.57 193.82 193.736L193.653 193.486L195.695 192.049L195.862 192.299C195.695 192.549 195.549 192.882 195.424 193.299C195.299 193.705 195.278 194.32 195.362 195.153L196.049 201.653L198.341 204.903C198.841 205.601 199.226 206.044 199.508 206.236C199.784 206.434 200.081 206.466 200.403 206.341L200.57 206.57L197.778 208.549Z" fill="#D99201"/>
<mask id="mask8_105_1794" style="mask-type:luminance" maskUnits="userSpaceOnUse" x="123" y="138" width="10" height="11">
<path d="M123.401 138.484H132.687V148.958H123.401V138.484Z" fill="white"/>
</mask>
<g mask="url(#mask8_105_1794)">
<path d="M128 138.526C125.458 138.542 123.432 140.646 123.432 143.187V148.958H132.635V143.13C132.635 140.573 130.557 138.505 128 138.526Z" fill="#D99201"/>
</g>
<mask id="mask9_105_1794" style="mask-type:luminance" maskUnits="userSpaceOnUse" x="142" y="134" width="14" height="15">
<path d="M142.562 134.901H155.651V148.958H142.562V134.901Z" fill="white"/>
</mask>
<g mask="url(#mask9_105_1794)">
<path d="M149.094 134.911C145.505 134.911 142.594 137.823 142.594 141.411V148.958H155.599V141.411C155.599 137.823 152.688 134.911 149.094 134.911Z" fill="#D99201"/>
</g>
<mask id="mask10_105_1794" style="mask-type:luminance" maskUnits="userSpaceOnUse" x="165" y="138" width="10" height="11">
<path d="M165.375 138.484H174.661V148.958H165.375V138.484Z" fill="white"/>
</mask>
<g mask="url(#mask10_105_1794)">
<path d="M170.016 138.526C167.474 138.526 165.411 140.583 165.411 143.13V148.958H174.62V143.13C174.62 140.583 172.557 138.526 170.016 138.526Z" fill="#D99201"/>
</g>
<mask id="mask11_105_1794" style="mask-type:luminance" maskUnits="userSpaceOnUse" x="108" y="87" width="83" height="63">
<path d="M108.974 87.1511H190.974V149.151H108.974V87.1511Z" fill="white"/>
</mask>
<g mask="url(#mask11_105_1794)">
<path d="M151.484 107.578L151.974 109.094L150.688 108.156L149.396 109.094L149.891 107.578L148.599 106.641H150.193L150.688 105.125L151.177 106.641H152.771L151.484 107.578ZM190.094 147.25H185.688C186.99 143.604 187.693 139.698 187.693 135.635C187.693 115.552 152.328 104.703 149.234 87.1511C146.141 104.703 110.776 115.552 110.776 135.635C110.776 139.698 111.484 143.604 112.781 147.25H109.844C109.375 147.25 108.995 147.635 108.995 148.104C108.995 148.573 109.375 148.958 109.844 148.958H118.734V143.359C118.734 142.719 119.255 142.198 119.896 142.198V133.052L121.438 132.818V131.802H121.912C121.573 131.042 121.385 130.208 121.385 129.339C121.385 126.078 126.734 124.214 127.896 121.5C127.521 121.411 127.24 121.073 127.24 120.672C127.24 120.292 127.484 119.974 127.823 119.859C127.901 119.057 128.031 117.828 128.089 117.828C128.146 117.828 128.281 119.057 128.359 119.859C128.698 119.969 128.943 120.292 128.943 120.672C128.943 121.083 128.651 121.427 128.266 121.505C129.427 124.219 134.771 126.078 134.771 129.339C134.771 129.839 134.708 130.323 134.594 130.792L136.26 130.536V128.609H139.271V127.13H139.974C139.469 126.01 139.193 124.781 139.193 123.484C139.193 118.443 147.849 115.661 149.021 111.339C146.828 110.896 145.188 108.932 145.245 106.599C145.302 104.13 147.287 102.104 149.755 101.995C150.219 101.979 150.667 102.026 151.094 102.13C148.677 102.182 146.745 104.188 146.813 106.63C146.875 108.995 148.844 110.896 151.208 110.885C151.662 110.885 152.104 110.813 152.516 110.682C151.781 111.156 150.901 111.432 149.964 111.432C149.693 111.432 149.432 111.406 149.177 111.365C150.38 115.677 159 118.453 159 123.484C159 124.781 158.719 126.01 158.219 127.13H158.922V128.609H161.932V130.536L163.594 130.792C163.479 130.323 163.417 129.839 163.417 129.339C163.417 126.078 168.766 124.214 169.927 121.505C169.547 121.417 169.26 121.078 169.26 120.672C169.26 120.292 169.505 119.974 169.849 119.859C169.922 119.057 170.057 117.828 170.115 117.828C170.172 117.828 170.307 119.057 170.38 119.859C170.724 119.969 170.969 120.292 170.969 120.672C170.969 121.078 170.682 121.422 170.297 121.505C171.458 124.214 176.807 126.078 176.807 129.339C176.807 130.208 176.62 131.042 176.281 131.802H176.755V132.818L178.292 133.052V142.198C179.094 142.198 179.74 142.844 179.74 143.641V148.958H190.094C190.568 148.958 190.948 148.573 190.948 148.104C190.948 147.635 190.568 147.25 190.094 147.25Z" fill="#D99201"/>
</g>
<path d="M118.145 174.699C117.239 174.699 116.463 174.548 115.812 174.241C115.171 173.939 114.718 173.376 114.458 172.553C113.692 172.736 112.963 172.814 112.27 172.783C111.588 172.741 110.963 172.605 110.395 172.366C109.838 172.132 109.401 171.814 109.083 171.408C108.76 170.991 108.604 170.501 108.604 169.928C108.604 169.178 108.838 168.491 109.312 167.866C109.781 167.241 110.421 166.715 111.229 166.283C112.046 165.855 112.942 165.553 113.916 165.387L113.854 163.783H115.562L115.895 170.699C115.921 171.355 116.031 171.845 116.229 172.178C116.437 172.512 116.713 172.736 117.062 172.845C117.421 172.944 117.854 172.991 118.354 172.991C118.656 172.991 118.875 173.074 119 173.241C119.135 173.397 119.208 173.585 119.208 173.803C119.208 174.027 119.109 174.236 118.916 174.428C118.718 174.605 118.463 174.699 118.145 174.699ZM110.27 169.658C110.27 169.98 110.395 170.241 110.645 170.449C110.906 170.658 111.239 170.814 111.645 170.908C112.046 171.007 112.468 171.053 112.916 171.053C113.375 171.053 113.796 171.022 114.187 170.949L114 167.116C113.208 167.199 112.531 167.382 111.979 167.658C111.421 167.923 111 168.236 110.708 168.595C110.416 168.96 110.27 169.314 110.27 169.658ZM114.562 161.387C114.27 161.387 114.02 161.293 113.812 161.095C113.614 160.887 113.52 160.647 113.52 160.366C113.52 160.09 113.614 159.845 113.812 159.637C114.02 159.428 114.27 159.324 114.562 159.324C114.838 159.324 115.073 159.428 115.27 159.637C115.479 159.845 115.583 160.09 115.583 160.366C115.583 160.647 115.479 160.887 115.27 161.095C115.073 161.293 114.838 161.387 114.562 161.387ZM111.687 161.387C111.395 161.387 111.145 161.293 110.937 161.095C110.739 160.887 110.645 160.647 110.645 160.366C110.645 160.09 110.739 159.845 110.937 159.637C111.145 159.428 111.395 159.324 111.687 159.324C111.963 159.324 112.208 159.428 112.416 159.637C112.625 159.845 112.729 160.09 112.729 160.366C112.729 160.647 112.625 160.887 112.416 161.095C112.208 161.293 111.963 161.387 111.687 161.387Z" fill="#D99201"/>
<path d="M118.154 174.699L118.363 172.991C118.748 172.991 119.055 172.908 119.279 172.741C119.514 172.564 119.743 172.283 119.967 171.908C120.186 171.522 120.467 170.991 120.8 170.324C121.243 169.439 121.686 168.757 122.133 168.283C122.592 167.798 123.019 167.465 123.425 167.283C123.842 167.105 124.222 167.012 124.571 167.012C125.029 167.012 125.436 167.116 125.8 167.324C126.16 167.522 126.493 167.861 126.8 168.345C127.118 168.835 127.451 169.491 127.8 170.324C128.118 171.105 128.41 171.689 128.675 172.074C128.936 172.449 129.206 172.699 129.488 172.824C129.779 172.939 130.102 172.991 130.467 172.991C130.758 172.991 130.967 173.074 131.092 173.241C131.227 173.397 131.3 173.585 131.3 173.803C131.3 174.027 131.201 174.236 131.008 174.428C130.811 174.605 130.561 174.699 130.258 174.699C129.717 174.699 129.217 174.616 128.758 174.449C128.3 174.272 127.936 174.001 127.675 173.637C127.41 174.111 127.076 174.449 126.675 174.658C126.285 174.876 125.863 174.991 125.404 174.991C124.696 174.991 123.977 174.772 123.258 174.345C122.535 173.902 121.925 173.319 121.425 172.595C121.061 173.236 120.717 173.71 120.383 174.012C120.05 174.303 119.701 174.491 119.342 174.574C118.993 174.658 118.597 174.699 118.154 174.699ZM122.217 170.991C122.686 171.783 123.217 172.366 123.8 172.741C124.394 173.116 124.925 173.303 125.383 173.303C125.868 173.303 126.222 173.132 126.446 172.783C126.68 172.423 126.675 171.928 126.425 171.303C126.258 170.887 126.081 170.48 125.904 170.074C125.722 169.673 125.514 169.345 125.279 169.095C125.04 168.835 124.764 168.699 124.446 168.699C124.123 168.715 123.785 168.882 123.425 169.199C123.061 169.522 122.66 170.116 122.217 170.991Z" fill="#D99201"/>
<path d="M130.256 174.699L130.444 172.991C131.886 172.991 133.282 172.777 134.631 172.345C135.99 171.918 137.225 171.314 138.339 170.533C137.798 170.064 137.131 169.678 136.339 169.387C135.548 169.095 134.678 168.949 133.735 168.949C133.386 168.949 133.079 168.97 132.819 169.012C132.553 169.043 132.225 169.095 131.839 169.178L131.506 167.574C132.298 167.34 133.037 167.22 133.735 167.22C134.454 167.22 135.11 167.314 135.694 167.491C136.287 167.658 136.824 167.876 137.298 168.137C137.782 168.387 138.235 168.637 138.652 168.887C139.079 169.137 139.496 169.355 139.902 169.533C140.303 169.699 140.725 169.783 141.173 169.783H141.61L141.756 171.283C141.032 171.283 140.381 171.402 139.798 171.637C139.214 171.861 138.621 172.147 138.027 172.491C137.444 172.84 136.798 173.178 136.089 173.512C135.381 173.845 134.553 174.131 133.61 174.366C132.678 174.59 131.558 174.699 130.256 174.699Z" fill="#D99201"/>
<path d="M141.834 179.449L141.23 177.866C142.574 177.418 143.631 176.887 144.397 176.262C145.157 175.647 145.693 175.012 146.001 174.345C146.318 173.668 146.48 173.001 146.48 172.345C146.48 171.668 146.324 170.98 146.022 170.283C145.73 169.574 145.402 168.902 145.042 168.262L146.563 167.491C146.949 168.241 147.277 168.96 147.542 169.637C147.818 170.319 148.042 170.918 148.209 171.428C148.402 172.027 148.652 172.439 148.959 172.658C149.277 172.882 149.709 172.991 150.251 172.991C150.542 172.991 150.751 173.074 150.876 173.241C151.011 173.397 151.084 173.585 151.084 173.803C151.084 174.027 150.985 174.236 150.792 174.428C150.594 174.605 150.344 174.699 150.042 174.699C149.511 174.699 149.068 174.616 148.709 174.449C148.36 174.283 148.068 174.064 147.834 173.783C147.693 174.564 147.402 175.267 146.959 175.908C146.511 176.559 145.99 177.121 145.397 177.595C144.798 178.079 144.178 178.475 143.542 178.783C142.917 179.085 142.344 179.309 141.834 179.449Z" fill="#D99201"/>
<path d="M150.042 174.699L150.229 172.991C151.021 172.991 151.573 172.918 151.896 172.762C152.229 172.611 152.417 172.34 152.459 171.949C152.511 171.564 152.526 171.012 152.5 170.303L152.084 159.637H153.792L154.209 170.116C154.25 171.105 154.177 171.944 154 172.637C153.834 173.319 153.443 173.835 152.834 174.178C152.219 174.527 151.292 174.699 150.042 174.699Z" fill="#D99201"/>
<path d="M157.402 174.595L156.986 159.637H158.694L159.111 174.595H157.402Z" fill="#D99201"/>
<path d="M164.949 179.408L164.345 177.824C165.746 177.376 166.829 176.845 167.595 176.22C168.355 175.605 168.876 174.97 169.157 174.303C169.449 173.626 169.595 172.97 169.595 172.345C169.595 171.96 169.553 171.585 169.47 171.22C169.387 170.861 169.241 170.449 169.032 169.991C168.824 169.533 168.532 168.96 168.157 168.262L169.678 167.491C170.204 168.408 170.584 169.272 170.824 170.074C171.058 170.882 171.178 171.59 171.178 172.199C171.178 173.09 171.032 173.887 170.741 174.595C170.449 175.303 170.064 175.934 169.595 176.491C169.137 177.043 168.626 177.517 168.074 177.908C167.532 178.293 166.98 178.616 166.428 178.866C165.871 179.116 165.376 179.293 164.949 179.408Z" fill="#D99201"/>
<path d="M178.633 174.699C177.508 174.699 176.654 174.574 176.071 174.324C175.487 174.074 175.076 173.689 174.841 173.158C174.617 172.616 174.492 171.928 174.466 171.095L174.05 159.637H175.779L176.196 170.428C176.222 171.111 176.284 171.637 176.383 172.012C176.492 172.387 176.727 172.647 177.091 172.783C177.466 172.923 178.055 172.991 178.862 172.991C179.154 172.991 179.362 173.074 179.487 173.241C179.623 173.397 179.696 173.585 179.696 173.803C179.696 174.027 179.597 174.236 179.404 174.428C179.206 174.605 178.951 174.699 178.633 174.699Z" fill="#D99201"/>
<path d="M178.642 174.699L178.851 172.991C179.517 172.991 180.059 172.949 180.476 172.866C180.892 172.783 181.189 172.611 181.372 172.345C181.549 172.085 181.642 171.694 181.642 171.178C181.642 170.668 181.517 170.006 181.267 169.199C181.028 168.381 180.752 167.574 180.434 166.783L182.142 166.158C182.32 166.616 182.486 167.131 182.642 167.699C182.809 168.272 182.945 168.835 183.059 169.387C183.168 169.944 183.226 170.428 183.226 170.845C183.226 172.262 182.851 173.262 182.101 173.845C181.361 174.418 180.21 174.699 178.642 174.699ZM180.872 178.595C180.58 178.595 180.33 178.491 180.122 178.283C179.924 178.085 179.83 177.85 179.83 177.574C179.83 177.293 179.924 177.043 180.122 176.824C180.33 176.616 180.58 176.512 180.872 176.512C181.148 176.512 181.392 176.616 181.601 176.824C181.809 177.043 181.913 177.293 181.913 177.574C181.913 177.85 181.809 178.085 181.601 178.283C181.392 178.491 181.148 178.595 180.872 178.595Z" fill="#D99201"/>
<path d="M186.129 174.595L185.775 161.116H187.483L187.837 174.595H186.129ZM188.025 159.074C187.608 159.074 187.233 159.007 186.9 158.866C186.566 158.715 186.259 158.569 185.983 158.428C185.702 158.293 185.447 158.22 185.212 158.22C184.947 158.22 184.712 158.283 184.504 158.408C184.306 158.533 184.103 158.71 183.879 158.928L183.087 158.262C183.394 157.861 183.723 157.543 184.066 157.303C184.41 157.069 184.795 156.949 185.212 156.949C185.556 156.949 185.879 157.027 186.17 157.178C186.462 157.319 186.754 157.46 187.045 157.595C187.337 157.736 187.66 157.803 188.025 157.803C188.243 157.803 188.452 157.772 188.65 157.699C188.842 157.616 189.087 157.491 189.379 157.324L189.983 158.178C189.525 158.569 189.134 158.819 188.816 158.928C188.509 159.027 188.243 159.074 188.025 159.074Z" fill="#D99201"/>
</svg>
